/* XPM */
static char * greendot_xpm[] = {
"10 10 25 1",
" 	c None",
".	c #0F6802",
"+	c #0E6B02",
"@	c #0F6502",
"#	c #0C7F04",
"$	c #0A9606",
"%	c #099E07",
"&	c #0F6602",
"*	c #08AD08",
"=	c #06C30A",
"-	c #05CA0B",
";	c #02E20D",
">	c #02EA0E",
",	c #05C30A",
"'	c #00FA0F",
")	c #01EB0E",
"!	c #05CC0B",
"~	c #09A007",
"{	c #0E6D02",
"]	c #05CB0B",
"^	c #0A9506",
"/	c #0F6702",
"(	c #05C40A",
"_	c #0C7E04",
":	c #0C8004",
"   .++.   ",
" @#$%%$#& ",
" #*=--=*# ",
".$=;>>;,$.",
"+%->'')!~{",
"+%->'')]~{",
".$=;));=^/",
" #*,!!(*_ ",
" &#$~~$:& ",
"   .{{.   "};
