/* XPM */
static char * reddot_xpm[] = {
"10 10 36 1",
" 	c None",
".	c #720601",
"+	c #750501",
"@	c #850502",
"#	c #9B0403",
"$	c #A30304",
"%	c #B00304",
"&	c #C60205",
"*	c #CC0206",
"=	c #9A0403",
"-	c #E30107",
";	c #EB0007",
">	c #E40107",
",	c #FA0008",
"'	c #EC0008",
")	c #CE0206",
"!	c #A50304",
"~	c #770501",
"{	c #CD0206",
"]	c #FB0008",
"^	c #730501",
"/	c #9C0403",
"(	c #C70205",
"_	c #E50107",
":	c #EE0008",
"<	c #870502",
"[	c #B30304",
"}	c #C90206",
"|	c #D10106",
"1	c #860502",
"2	c #890502",
"3	c #9F0403",
"4	c #A80304",
"5	c #8A0402",
"6	c #740501",
"7	c #790501",
"   .++.   ",
"  @#$$#@  ",
" @%&**&%@ ",
".=&-;;>&#.",
"+$*;,,')!~",
"+${;]]')!~",
"^/(_::_&#.",
" <[}||}[1 ",
"  234435  ",
"   6776   "};
